<svg xmlns="http://www.w3.org/2000/svg" version="1.1" xmlns:xlink="http://www.w3.org/1999/xlink" xmlns:svgjs="http://svgjs.dev/svgjs" width="1000" height="1125" viewBox="0 0 1000 1125"><g transform="matrix(1,0,0,1,1.7053025658242404e-13,0)"><svg viewBox="0 0 320 360" data-background-color="#ffffff" preserveAspectRatio="xMidYMid meet" height="1125" width="1000" xmlns="http://www.w3.org/2000/svg" xmlns:xlink="http://www.w3.org/1999/xlink"><g id="tight-bounds" transform="matrix(1,0,0,1,0,0)"><svg viewBox="0 0 320 360" height="360" width="320"><g><svg></svg></g><g><svg viewBox="0 0 320 360" height="360" width="320"><g><path xmlns="http://www.w3.org/2000/svg" d="M20.961 227.22l3.726 4.658-1.863-6.056c-0.466-2.795-3.726 0.466-1.863 1.398M25.153 224.425c1.397 2.329 2.795 4.658 2.795 6.987 0 3.261 2.795 4.658 5.123 5.589-3.261-3.726-5.124-13.974-7.918-12.576M204.017 26.929c7.918 0 15.371-0.932 23.756 0.931 20.495 5.124 37.729 15.371 49.374 29.811l32.606 52.169c1.397 13.042 4.192 27.482 3.726 43.319 3.261 0 2.795-4.658 6.521-5.59-3.726 9.316-5.59 20.961-6.521 34.469-2.329-7.453 0-18.632 0.466-24.687-3.261 5.124-5.124 1.397-5.124-0.932 0.466-3.726-1.397-3.261-2.795-4.658-5.124-4.658-8.384-9.782-12.11-17.7 2.329-6.055 2.795-14.905-4.658-19.563-2.329-1.397-5.124-3.726-6.521-7.453-1.863-5.124-5.124-11.179-4.193-19.097 0.466-2.329-6.987 5.124-11.179 1.863-18.166-12.576-36.332-27.016-58.224-39.127-11.645 0-20.029-4.192-24.221-9.316-3.726-4.658-0.932-10.713 4.658-11.179 3.261 0 6.987-0.932 9.782 0.932 0.466-1.863 2.329-4.192 4.657-4.192M157.904 16.215l0.932 0.466c4.658 0.932 6.987 7.453 12.11 5.124 0 3.261 0.466 6.521-0.466 8.85-1.397 3.726-5.59 3.726-8.85 3.726-31.208-1.863-49.374 11.179-68.471 22.358-5.124 3.261-10.713 5.59-14.906 9.782-20.029 18.632-41.921 35.866-47.045 70.335l-4.192 38.195c-0.466 4.192-5.124 8.384-4.192 13.508l3.26 22.824c-3.261-3.261-5.124 0.932-4.192 2.795 0.466 1.397 2.329 6.055 5.124 1.863 3.726 6.987 7.453 20.495 12.576 26.55 15.837 18.632 36.332 35.4 53.101 52.169 4.192-0.932 7.453-0.932 8.384-3.727 1.397 2.795-1.397 5.59-3.726 6.056 7.453 4.658 15.837 8.85 27.016 9.781 14.44 0.932 27.948 3.261 40.524 6.522 6.521-1.863 13.042-2.795 20.029-3.261 2.329 0 3.726-3.726 6.521-4.658l0.466-4.658c2.795 4.192 2.329-1.397 0.466-4.192 3.261 2.795 4.192 5.124 5.589 6.987 0-1.397 3.726-6.521 3.727-0.466l0.931-6.055c1.397-0.932 1.863 5.124 3.261 0.931 1.397-4.192 4.192-0.932 6.987-2.329-0.932 1.863-0.466 5.59 2.794 3.261l3.727-3.261c2.329 5.59 6.055 3.261 7.918 2.329 20.495-13.042 40.99-28.413 60.553-43.784l-0.466 6.055 2.329-7.453c2.329 2.329 4.192 0.466 5.124-0.931 2.795-4.658 6.521-9.316 12.577-13.508-7.453 20.029-16.303 35.866-27.482 48.908l-4.658 5.59c0 3.261-0.932 7.453-4.658 7.918-1.863 0.466-5.59-0.932-8.384 1.863-1.397 1.863 3.261 5.59-0.466 2.795-3.261-2.329-6.521 0-10.248 0.932-2.795 0.932 1.863 3.726 2.795 5.589 0.932 1.863 1.863 3.726 1.398 6.056l-5.124-5.59c-6.055 3.261-9.782 9.316-14.906 13.974-2.329 1.863-1.397 5.124-1.397 7.918-3.261 0-6.987-0.932-8.85 0.932-1.397 1.863-0.932 4.658-0.932 7.453-4.658-0.466-5.124-7.453-9.315-6.056-4.192 0.932-8.85 1.397-12.577 3.727 2.795 5.59-4.658 2.329-3.726 3.26-6.987-4.192-13.042-7.453-20.495-4.658-15.837-5.124-35.4-2.795-49.84-0.931 0-2.329 0.466-4.658-0.466-5.124-0.932 2.329-3.726 1.397-3.26 1.397-8.85-6.055-17.7-9.782-27.016-14.905-8.384 0.932-16.303-3.261-18.632-5.59-6.521-6.055-13.974-2.795-20.029-4.192-13.042-3.261-17.7-16.769-19.098-26.084-0.932-4.658-4.658-6.521-6.055-6.056-6.055-19.563-15.371-37.263-22.824-55.429-1.863-4.658-1.397-9.316-1.397-14.44 2.329 0.932 4.658 0.466 4.192-2.794-2.329-15.371-7.918-27.016-13.974-38.195 3.261-15.837 3.726-34.469 11.179-48.443 6.521-12.576 18.632-19.098 27.016-29.811 2.795-3.726 2.795-8.85 5.59-12.11 9.316-9.316 18.632-19.098 28.879-27.482 4.658-3.726 10.247 0 17.234-1.397 2.329-8.384 11.645-15.837 20.495-13.508 3.726 0.932 11.179-8.85 13.508-9.782 3.726-1.397 1.863 3.726 1.863 6.987 8.85-6.987 20.961-10.713 32.14-14.906" fill="rgba(238, 124, 83,0.64)" fill-rule="nonzero" stroke="none" stroke-width="1" stroke-linecap="butt" stroke-linejoin="miter" stroke-miterlimit="10" stroke-dasharray="" stroke-dashoffset="0" font-family="none" font-weight="none" font-size="none" text-anchor="none" style="mix-blend-mode: normal" data-fill-palette-color="tertiary"></path></g><g transform="matrix(1,0,0,1,64,162.0997534630077)"><svg viewBox="0 0 192 35.800493073984626" height="35.800493073984626" width="192"><g><svg viewBox="0 0 192 35.800493073984626" height="35.800493073984626" width="192"><g><svg viewBox="0 0 192 35.800493073984626" height="35.800493073984626" width="192"><g><svg viewBox="0 0 192 35.800493073984626" height="35.800493073984626" width="192"><g id="textblocktransform"><svg viewBox="0 0 192 35.800493073984626" height="35.800493073984626" width="192" id="textblock"><g><svg viewBox="0 0 192 20.29593852908891" height="20.29593852908891" width="192"><g transform="matrix(1,0,0,1,0,0)"><svg width="192" viewBox="1.25 -37.5 455.4599914550781 48.150001525878906" height="20.29593852908891" data-palette-color="#000000"><path d="M13.5-35.05Q16.95-35.05 19.4-34.08 21.85-33.1 24.15-31.05L24.15-31.05 21.55-28.15Q19.6-29.7 17.73-30.43 15.85-31.15 13.7-31.15L13.7-31.15Q11-31.15 9.25-29.9 7.5-28.65 7.5-26.25L7.5-26.25Q7.5-24.75 8.1-23.73 8.7-22.7 10.33-21.85 11.95-21 15.05-20.05L15.05-20.05Q18.3-19.05 20.45-17.9 22.6-16.75 23.93-14.73 25.25-12.7 25.25-9.6L25.25-9.6Q25.25-6.6 23.78-4.3 22.3-2 19.53-0.7 16.75 0.6 12.95 0.6L12.95 0.6Q5.8 0.6 1.25-3.85L1.25-3.85 3.85-6.75Q5.95-5.05 8.1-4.17 10.25-3.3 12.9-3.3L12.9-3.3Q16.1-3.3 18.2-4.88 20.3-6.45 20.3-9.45L20.3-9.45Q20.3-11.15 19.65-12.28 19-13.4 17.43-14.3 15.85-15.2 12.85-16.1L12.85-16.1Q7.55-17.7 5.1-19.95 2.65-22.2 2.65-26.05L2.65-26.05Q2.65-28.65 4.03-30.7 5.4-32.75 7.88-33.9 10.35-35.05 13.5-35.05L13.5-35.05ZM44.4-26.95Q48-26.95 50.02-24.8 52.05-22.65 52.05-18.9L52.05-18.9 52.05 0 47.45 0 47.45-18.25Q47.45-21.05 46.37-22.2 45.3-23.35 43.25-23.35L43.25-23.35Q41.2-23.35 39.6-22.15 38-20.95 36.6-18.75L36.6-18.75 36.6 0 32 0 32-36.9 36.6-37.4 36.6-22.7Q39.7-26.95 44.4-26.95L44.4-26.95ZM81.2-13.95Q81.2-12.8 81.09-11.6L81.09-11.6 64.3-11.6Q64.59-7.25 66.5-5.2 68.4-3.15 71.4-3.15L71.4-3.15Q73.3-3.15 74.9-3.7 76.5-4.25 78.25-5.45L78.25-5.45 80.25-2.7Q76.05 0.6 71.05 0.6L71.05 0.6Q65.55 0.6 62.47-3 59.4-6.6 59.4-12.9L59.4-12.9Q59.4-17 60.72-20.18 62.05-23.35 64.52-25.15 67-26.95 70.34-26.95L70.34-26.95Q75.59-26.95 78.4-23.5 81.2-20.05 81.2-13.95L81.2-13.95ZM76.65-15L76.65-15.3Q76.65-19.2 75.09-21.25 73.55-23.3 70.45-23.3L70.45-23.3Q64.8-23.3 64.3-15L64.3-15 76.65-15ZM99.99-26.95Q101.39-26.95 102.59-26.65L102.59-26.65 101.74-22.15Q100.54-22.45 99.44-22.45L99.44-22.45Q96.99-22.45 95.49-20.65 93.99-18.85 93.14-15.05L93.14-15.05 93.14 0 88.54 0 88.54-26.35 92.49-26.35 92.94-21Q93.99-23.95 95.79-25.45 97.59-26.95 99.99-26.95L99.99-26.95ZM127.74-13.95Q127.74-12.8 127.64-11.6L127.64-11.6 110.84-11.6Q111.14-7.25 113.04-5.2 114.94-3.15 117.94-3.15L117.94-3.15Q119.84-3.15 121.44-3.7 123.04-4.25 124.79-5.45L124.79-5.45 126.79-2.7Q122.59 0.6 117.59 0.6L117.59 0.6Q112.09 0.6 109.02-3 105.94-6.6 105.94-12.9L105.94-12.9Q105.94-17 107.27-20.18 108.59-23.35 111.06-25.15 113.54-26.95 116.89-26.95L116.89-26.95Q122.14-26.95 124.94-23.5 127.74-20.05 127.74-13.95L127.74-13.95ZM123.19-15L123.19-15.3Q123.19-19.2 121.64-21.25 120.09-23.3 116.99-23.3L116.99-23.3Q111.34-23.3 110.84-15L110.84-15 123.19-15ZM132.74-26.35L150.54-26.35 150.54-22.85 136.79-3.85 150.69-3.85 150.14 0 131.59 0 131.59-3.45 145.29-22.45 132.74-22.45 132.74-26.35ZM174.69-6.15Q174.69-4.55 175.24-3.78 175.78-3 176.88-2.6L176.88-2.6 175.84 0.6Q173.78 0.35 172.53-0.55 171.28-1.45 170.69-3.35L170.69-3.35Q168.03 0.6 162.84 0.6L162.84 0.6Q158.94 0.6 156.69-1.6 154.44-3.8 154.44-7.35L154.44-7.35Q154.44-11.55 157.46-13.8 160.49-16.05 166.03-16.05L166.03-16.05 170.09-16.05 170.09-18Q170.09-20.8 168.74-22 167.38-23.2 164.59-23.2L164.59-23.2Q161.69-23.2 157.49-21.8L157.49-21.8 156.34-25.15Q161.24-26.95 165.44-26.95L165.44-26.95Q170.09-26.95 172.38-24.68 174.69-22.4 174.69-18.2L174.69-18.2 174.69-6.15ZM163.88-2.85Q167.84-2.85 170.09-6.95L170.09-6.95 170.09-13 166.63-13Q159.34-13 159.34-7.6L159.34-7.6Q159.34-5.25 160.49-4.05 161.63-2.85 163.88-2.85L163.88-2.85ZM199.93-37.5L204.53-36.95 204.53 0 200.48 0 200.03-3.65Q198.73-1.65 196.78-0.53 194.83 0.6 192.43 0.6L192.43 0.6Q187.73 0.6 185.11-3.1 182.48-6.8 182.48-13.05L182.48-13.05Q182.48-17.1 183.73-20.25 184.98-23.4 187.33-25.18 189.68-26.95 192.83-26.95L192.83-26.95Q196.88-26.95 199.93-23.7L199.93-23.7 199.93-37.5ZM193.43-3.05Q195.53-3.05 197.03-4.03 198.53-5 199.93-6.95L199.93-6.95 199.93-19.85Q198.63-21.55 197.16-22.43 195.68-23.3 193.83-23.3L193.83-23.3Q190.78-23.3 189.11-20.75 187.43-18.2 187.43-13.15L187.43-13.15Q187.43-8.05 188.98-5.55 190.53-3.05 193.43-3.05L193.43-3.05ZM233.93-13.95Q233.93-12.8 233.83-11.6L233.83-11.6 217.03-11.6Q217.33-7.25 219.23-5.2 221.13-3.15 224.13-3.15L224.13-3.15Q226.03-3.15 227.63-3.7 229.23-4.25 230.98-5.45L230.98-5.45 232.98-2.7Q228.78 0.6 223.78 0.6L223.78 0.6Q218.28 0.6 215.21-3 212.13-6.6 212.13-12.9L212.13-12.9Q212.13-17 213.46-20.18 214.78-23.35 217.25-25.15 219.73-26.95 223.08-26.95L223.08-26.95Q228.33-26.95 231.13-23.5 233.93-20.05 233.93-13.95L233.93-13.95ZM229.38-15L229.38-15.3Q229.38-19.2 227.83-21.25 226.28-23.3 223.18-23.3L223.18-23.3Q217.53-23.3 217.03-15L217.03-15 229.38-15ZM282.73-34.45L285.57 0 280.98 0 279.77-15.55Q279.02-24.7 278.93-29.6L278.93-29.6 271.48-3.9 267.02-3.9 259.18-29.65Q259.18-23.4 258.52-15.2L258.52-15.2 257.38 0 252.88 0 255.72-34.45 262.13-34.45 269.38-9.4 276.27-34.45 282.73-34.45ZM311.17-6.15Q311.17-4.55 311.72-3.78 312.27-3 313.37-2.6L313.37-2.6 312.32 0.6Q310.27 0.35 309.02-0.55 307.77-1.45 307.17-3.35L307.17-3.35Q304.52 0.6 299.32 0.6L299.32 0.6Q295.42 0.6 293.17-1.6 290.92-3.8 290.92-7.35L290.92-7.35Q290.92-11.55 293.95-13.8 296.97-16.05 302.52-16.05L302.52-16.05 306.57-16.05 306.57-18Q306.57-20.8 305.22-22 303.87-23.2 301.07-23.2L301.07-23.2Q298.17-23.2 293.97-21.8L293.97-21.8 292.82-25.15Q297.72-26.95 301.92-26.95L301.92-26.95Q306.57-26.95 308.87-24.68 311.17-22.4 311.17-18.2L311.17-18.2 311.17-6.15ZM300.37-2.85Q304.32-2.85 306.57-6.95L306.57-6.95 306.57-13 303.12-13Q295.82-13 295.82-7.6L295.82-7.6Q295.82-5.25 296.97-4.05 298.12-2.85 300.37-2.85L300.37-2.85ZM337.07-26.35L341.02-26.35 341.02 10.65 336.42 10.1 336.42-3.5Q335.12-1.55 333.19-0.48 331.27 0.6 328.92 0.6L328.92 0.6Q324.22 0.6 321.6-3.1 318.97-6.8 318.97-13.05L318.97-13.05Q318.97-17.1 320.22-20.25 321.47-23.4 323.82-25.18 326.17-26.95 329.32-26.95L329.32-26.95Q333.52-26.95 336.72-23.4L336.72-23.4 337.07-26.35ZM329.92-3.05Q332.02-3.05 333.52-4.03 335.02-5 336.42-6.95L336.42-6.95 336.42-19.85Q335.12-21.55 333.64-22.43 332.17-23.3 330.32-23.3L330.32-23.3Q327.27-23.3 325.6-20.75 323.92-18.2 323.92-13.15L323.92-13.15Q323.92-8.05 325.47-5.55 327.02-3.05 329.92-3.05L329.92-3.05ZM370.12-26.35L370.12 0 366.17 0 365.82-4.1Q364.32-1.65 362.37-0.53 360.42 0.6 357.62 0.6L357.62 0.6Q354.17 0.6 352.22-1.5 350.27-3.6 350.27-7.45L350.27-7.45 350.27-26.35 354.87-26.35 354.87-7.95Q354.87-5.25 355.82-4.13 356.77-3 358.92-3L358.92-3Q362.77-3 365.52-7.55L365.52-7.55 365.52-26.35 370.12-26.35ZM399.51-13.95Q399.51-12.8 399.42-11.6L399.42-11.6 382.62-11.6Q382.92-7.25 384.81-5.2 386.72-3.15 389.72-3.15L389.72-3.15Q391.62-3.15 393.22-3.7 394.81-4.25 396.56-5.45L396.56-5.45 398.56-2.7Q394.37 0.6 389.37 0.6L389.37 0.6Q383.87 0.6 380.79-3 377.72-6.6 377.72-12.9L377.72-12.9Q377.72-17 379.04-20.18 380.37-23.35 382.84-25.15 385.31-26.95 388.67-26.95L388.67-26.95Q393.92-26.95 396.72-23.5 399.51-20.05 399.51-13.95L399.51-13.95ZM394.97-15L394.97-15.3Q394.97-19.2 393.42-21.25 391.87-23.3 388.76-23.3L388.76-23.3Q383.12-23.3 382.62-15L382.62-15 394.97-15ZM422.66-37.5L427.26-36.95 427.26 0 423.21 0 422.76-3.65Q421.46-1.65 419.51-0.53 417.56 0.6 415.16 0.6L415.16 0.6Q410.46 0.6 407.84-3.1 405.21-6.8 405.21-13.05L405.21-13.05Q405.21-17.1 406.46-20.25 407.71-23.4 410.06-25.18 412.41-26.95 415.56-26.95L415.56-26.95Q419.61-26.95 422.66-23.7L422.66-23.7 422.66-37.5ZM416.16-3.05Q418.26-3.05 419.76-4.03 421.26-5 422.66-6.95L422.66-6.95 422.66-19.85Q421.36-21.55 419.89-22.43 418.41-23.3 416.56-23.3L416.56-23.3Q413.51-23.3 411.84-20.75 410.16-18.2 410.16-13.15L410.16-13.15Q410.16-8.05 411.71-5.55 413.26-3.05 416.16-3.05L416.16-3.05ZM454.51-6.15Q454.51-4.55 455.06-3.78 455.61-3 456.71-2.6L456.71-2.6 455.66 0.6Q453.61 0.35 452.36-0.55 451.11-1.45 450.51-3.35L450.51-3.35Q447.86 0.6 442.66 0.6L442.66 0.6Q438.76 0.6 436.51-1.6 434.26-3.8 434.26-7.35L434.26-7.35Q434.26-11.55 437.28-13.8 440.31-16.05 445.86-16.05L445.86-16.05 449.91-16.05 449.91-18Q449.91-20.8 448.56-22 447.21-23.2 444.41-23.2L444.41-23.2Q441.51-23.2 437.31-21.8L437.31-21.8 436.16-25.15Q441.06-26.95 445.26-26.95L445.26-26.95Q449.91-26.95 452.21-24.68 454.51-22.4 454.51-18.2L454.51-18.2 454.51-6.15ZM443.71-2.85Q447.66-2.85 449.91-6.95L449.91-6.95 449.91-13 446.46-13Q439.16-13 439.16-7.6L439.16-7.6Q439.16-5.25 440.31-4.05 441.46-2.85 443.71-2.85L443.71-2.85Z" opacity="1" transform="matrix(1,0,0,1,0,0)" fill="#000000" class="wordmark-text-0" data-fill-palette-color="primary" id="text-0"></path></svg></g></svg></g><g transform="matrix(1,0,0,1,0,23.257603063007682)"><svg viewBox="0 0 192 12.542890010976945" height="12.542890010976945" width="192"><g transform="matrix(1,0,0,1,0,0)"><svg width="192" viewBox="3.5 -38.29999923706055 730.1699829101562 47.69999694824219" height="12.542890010976945" data-palette-color="#89939e"><path d="M17.55 0.7L17.55 0.7Q13.9 0.7 11.25-0.33 8.6-1.35 6.88-3.18 5.15-5 4.33-7.53 3.5-10.05 3.5-13.1L3.5-13.1 3.5-34.65 11.3-34.65 11.3-13.75Q11.3-11.65 11.78-10.18 12.25-8.7 13.08-7.78 13.9-6.85 15.08-6.45 16.25-6.05 17.65-6.05L17.65-6.05Q20.5-6.05 22.28-7.8 24.05-9.55 24.05-13.75L24.05-13.75 24.05-34.65 31.85-34.65 31.85-13.1Q31.85-10.05 31-7.5 30.15-4.95 28.4-3.13 26.65-1.3 23.95-0.3 21.25 0.7 17.55 0.7ZM112.49 0L103.14 0Q101.69-2.9 99.96-5.88 98.24-8.85 95.99-11.95L95.99-11.95Q95.29-11.05 94.21-9.45 93.14-7.85 92.06-6.05 90.99-4.25 90.04-2.6 89.09-0.95 88.64 0L88.64 0 79.74 0Q81.94-4.05 84.86-8.5 87.79-12.95 91.39-17.95L91.39-17.95 80.24-34.65 89.69-34.65 96.44-23.85 103.04-34.65 111.94-34.65 100.94-17.85Q105.14-12.4 107.99-7.78 110.84-3.15 112.49 0L112.49 0ZM224.56-28.25L224.56-6.35Q225.11-6.3 225.83-6.28 226.56-6.25 227.56-6.25L227.56-6.25Q233.41-6.25 236.23-9.2 239.06-12.15 239.06-17.35L239.06-17.35Q239.06-22.8 236.36-25.6 233.66-28.4 227.81-28.4L227.81-28.4Q227.01-28.4 226.16-28.38 225.31-28.35 224.56-28.25L224.56-28.25ZM247.11-17.35L247.11-17.35Q247.11-12.85 245.71-9.5 244.31-6.15 241.73-3.95 239.16-1.75 235.46-0.65 231.76 0.45 227.16 0.45L227.16 0.45Q225.06 0.45 222.26 0.28 219.46 0.1 216.76-0.45L216.76-0.45 216.76-34.2Q219.46-34.7 222.38-34.88 225.31-35.05 227.41-35.05L227.41-35.05Q231.86-35.05 235.48-34.05 239.11-33.05 241.71-30.9 244.31-28.75 245.71-25.4 247.11-22.05 247.11-17.35ZM295.75-12.95L295.75-12.95Q295.75-16.45 296.82-19.07 297.9-21.7 299.65-23.45 301.4-25.2 303.67-26.1 305.95-27 308.35-27L308.35-27Q313.95-27 317.2-23.58 320.45-20.15 320.45-13.5L320.45-13.5Q320.45-12.85 320.4-12.08 320.35-11.3 320.3-10.7L320.3-10.7 303.4-10.7Q303.65-8.4 305.55-7.05 307.45-5.7 310.65-5.7L310.65-5.7Q312.7-5.7 314.67-6.08 316.65-6.45 317.9-7L317.9-7 318.9-0.95Q318.3-0.65 317.3-0.35 316.3-0.05 315.07 0.18 313.85 0.4 312.45 0.55 311.05 0.7 309.65 0.7L309.65 0.7Q306.1 0.7 303.47-0.35 300.85-1.4 299.12-3.23 297.4-5.05 296.57-7.55 295.75-10.05 295.75-12.95ZM303.4-15.8L313.25-15.8Q313.2-16.75 312.92-17.65 312.65-18.55 312.07-19.25 311.5-19.95 310.62-20.4 309.75-20.85 308.45-20.85L308.45-20.85Q307.2-20.85 306.3-20.43 305.4-20 304.8-19.3 304.2-18.6 303.87-17.68 303.55-16.75 303.4-15.8L303.4-15.8ZM377.63-5.35L377.63-5.35Q379.68-5.35 380.53-5.75 381.38-6.15 381.38-7.3L381.38-7.3Q381.38-8.2 380.28-8.88 379.18-9.55 376.93-10.4L376.93-10.4Q375.18-11.05 373.76-11.75 372.33-12.45 371.33-13.43 370.33-14.4 369.78-15.75 369.23-17.1 369.23-19L369.23-19Q369.23-22.7 371.98-24.85 374.73-27 379.53-27L379.53-27Q381.93-27 384.13-26.58 386.33-26.15 387.63-25.65L387.63-25.65 386.33-19.85Q385.03-20.3 383.51-20.65 381.98-21 380.08-21L380.08-21Q376.58-21 376.58-19.05L376.58-19.05Q376.58-18.6 376.73-18.25 376.88-17.9 377.33-17.57 377.78-17.25 378.56-16.88 379.33-16.5 380.53-16.05L380.53-16.05Q382.98-15.15 384.58-14.28 386.18-13.4 387.11-12.38 388.03-11.35 388.41-10.1 388.78-8.85 388.78-7.2L388.78-7.2Q388.78-3.3 385.86-1.3 382.93 0.7 377.58 0.7L377.58 0.7Q374.08 0.7 371.76 0.1 369.43-0.5 368.53-0.9L368.53-0.9 369.78-6.95Q371.68-6.2 373.68-5.78 375.68-5.35 377.63-5.35ZM445.67-26.3L445.67 0 438.22 0 438.22-26.3 445.67-26.3ZM446.37-33.9L446.37-33.9Q446.37-31.85 445.04-30.68 443.72-29.5 441.92-29.5L441.92-29.5Q440.12-29.5 438.79-30.68 437.47-31.85 437.47-33.9L437.47-33.9Q437.47-35.95 438.79-37.13 440.12-38.3 441.92-38.3L441.92-38.3Q443.72-38.3 445.04-37.13 446.37-35.95 446.37-33.9ZM502.91-14L502.91-14Q502.91-7.75 507.96-7.75L507.96-7.75Q509.11-7.75 510.11-8.05 511.11-8.35 511.81-8.75L511.81-8.75 511.81-20.65Q511.26-20.75 510.51-20.83 509.76-20.9 508.76-20.9L508.76-20.9Q505.81-20.9 504.36-18.95 502.91-17 502.91-14ZM519.26-25.4L519.26-3.3Q519.26 3.15 515.98 6.28 512.71 9.4 505.86 9.4L505.86 9.4Q503.46 9.4 501.06 8.97 498.66 8.55 496.61 7.85L496.61 7.85 497.91 1.6Q499.66 2.3 501.58 2.7 503.51 3.1 505.96 3.1L505.96 3.1Q509.16 3.1 510.48 1.7 511.81 0.3 511.81-1.9L511.81-1.9 511.81-2.85Q510.61-2.3 509.33-2.02 508.06-1.75 506.56-1.75L506.56-1.75Q501.11-1.75 498.21-4.98 495.31-8.2 495.31-14L495.31-14Q495.31-16.9 496.21-19.28 497.11-21.65 498.83-23.35 500.56-25.05 503.06-25.98 505.56-26.9 508.71-26.9L508.71-26.9Q510.06-26.9 511.48-26.78 512.91-26.65 514.31-26.45 515.71-26.25 516.98-25.98 518.26-25.7 519.26-25.4L519.26-25.4ZM570.14 0L570.14-25.4Q572.04-25.95 575.04-26.43 578.04-26.9 581.34-26.9L581.34-26.9Q584.69-26.9 586.92-26.03 589.14-25.15 590.44-23.55 591.74-21.95 592.29-19.75 592.84-17.55 592.84-14.85L592.84-14.85 592.84 0 585.39 0 585.39-13.95Q585.39-17.55 584.44-19.05 583.49-20.55 580.89-20.55L580.89-20.55Q580.09-20.55 579.19-20.48 578.29-20.4 577.59-20.3L577.59-20.3 577.59 0 570.14 0ZM642.23-12.95L642.23-12.95Q642.23-16.45 643.3-19.07 644.38-21.7 646.13-23.45 647.88-25.2 650.15-26.1 652.43-27 654.83-27L654.83-27Q660.43-27 663.68-23.58 666.93-20.15 666.93-13.5L666.93-13.5Q666.93-12.85 666.88-12.08 666.83-11.3 666.78-10.7L666.78-10.7 649.88-10.7Q650.13-8.4 652.03-7.05 653.93-5.7 657.13-5.7L657.13-5.7Q659.18-5.7 661.15-6.08 663.13-6.45 664.38-7L664.38-7 665.38-0.95Q664.78-0.65 663.78-0.35 662.78-0.05 661.55 0.18 660.33 0.4 658.93 0.55 657.53 0.7 656.13 0.7L656.13 0.7Q652.58 0.7 649.95-0.35 647.33-1.4 645.6-3.23 643.88-5.05 643.05-7.55 642.23-10.05 642.23-12.95ZM649.88-15.8L659.73-15.8Q659.68-16.75 659.4-17.65 659.13-18.55 658.55-19.25 657.98-19.95 657.1-20.4 656.23-20.85 654.93-20.85L654.93-20.85Q653.68-20.85 652.78-20.43 651.88-20 651.28-19.3 650.68-18.6 650.35-17.68 650.03-16.75 649.88-15.8L649.88-15.8ZM733.67-25.85L732.42-19.7Q731.42-19.95 730.07-20.23 728.72-20.5 727.17-20.5L727.17-20.5Q726.47-20.5 725.49-20.38 724.52-20.25 724.02-20.1L724.02-20.1 724.02 0 716.57 0 716.57-24.9Q718.57-25.6 721.29-26.23 724.02-26.85 727.37-26.85L727.37-26.85Q727.97-26.85 728.82-26.78 729.67-26.7 730.52-26.58 731.37-26.45 732.22-26.28 733.07-26.1 733.67-25.85L733.67-25.85Z" opacity="1" transform="matrix(1,0,0,1,0,0)" fill="#89939e" class="slogan-text-1" data-fill-palette-color="secondary" id="text-1"></path></svg></g></svg></g></svg></g></svg></g><g></g></svg></g></svg></g></svg></g></svg></g><defs></defs></svg><rect width="320" height="360" fill="none" stroke="none" visibility="hidden"></rect></g></svg></g></svg>